<svg xmlns="http://www.w3.org/2000/svg" xmlns:xlink="http://www.w3.org/1999/xlink" width="48" zoomAndPan="magnify" viewBox="0 0 36 36.000001" height="48" preserveAspectRatio="xMidYMid meet" version="1.0"><defs><clipPath id="ca1963d7b0"><path d="M 1.285156 1.605469 L 34.851562 1.605469 L 34.851562 33.707031 L 1.285156 33.707031 Z M 1.285156 1.605469 " clip-rule="nonzero"/></clipPath></defs><g clip-path="url(#ca1963d7b0)"><path fill="#5271ff" d="M 2.484375 30.726562 C 1.738281 30.726562 1.136719 31.328125 1.136719 32.074219 C 1.136719 32.816406 1.738281 33.417969 2.484375 33.417969 L 18.945312 33.417969 C 23.324219 33.417969 27.300781 31.636719 30.1875 28.75 C 33.066406 25.871094 34.851562 21.894531 34.851562 17.511719 C 34.851562 13.128906 33.066406 9.148438 30.1875 6.269531 C 27.308594 3.382812 23.328125 1.601562 18.945312 1.601562 L 15.863281 1.601562 C 15.121094 1.601562 14.515625 2.203125 14.515625 2.953125 C 14.515625 3.695312 15.121094 4.292969 15.863281 4.292969 L 18.945312 4.292969 C 22.585938 4.292969 25.886719 5.785156 28.285156 8.171875 C 30.671875 10.566406 32.15625 13.867188 32.15625 17.511719 C 32.15625 21.160156 30.671875 24.457031 28.285156 26.855469 C 25.886719 29.242188 22.585938 30.726562 18.945312 30.726562 Z M 12.066406 14.238281 C 12.808594 14.238281 13.410156 13.640625 13.410156 12.890625 C 13.410156 12.148438 12.808594 11.550781 12.066406 11.550781 L 8.628906 11.550781 C 7.878906 11.550781 7.28125 12.148438 7.28125 12.890625 C 7.28125 13.640625 7.878906 14.238281 8.628906 14.238281 Z M 10 9.269531 C 10.738281 9.269531 11.339844 8.671875 11.339844 7.929688 C 11.339844 7.179688 10.738281 6.578125 10 6.578125 L 4.875 6.578125 C 4.125 6.578125 3.523438 7.179688 3.523438 7.929688 C 3.523438 8.671875 4.125 9.269531 4.875 9.269531 Z M 12.066406 4.292969 C 12.808594 4.292969 13.410156 3.695312 13.410156 2.953125 C 13.410156 2.203125 12.808594 1.601562 12.066406 1.601562 L 2.484375 1.601562 C 1.738281 1.601562 1.136719 2.203125 1.136719 2.953125 C 1.136719 3.695312 1.738281 4.292969 2.484375 4.292969 Z M 4.867188 20.742188 C 4.480469 20.742188 4.132812 20.894531 3.882812 21.152344 C 3.632812 21.402344 3.484375 21.746094 3.484375 22.128906 C 3.484375 22.515625 3.640625 22.863281 3.882812 23.105469 C 4.136719 23.363281 4.480469 23.519531 4.867188 23.519531 C 5.246094 23.519531 5.589844 23.363281 5.84375 23.105469 C 6.09375 22.859375 6.253906 22.515625 6.253906 22.128906 C 6.253906 21.746094 6.09375 21.394531 5.84375 21.152344 C 5.59375 20.894531 5.246094 20.742188 4.867188 20.742188 Z M 4.867188 11.503906 C 4.480469 11.503906 4.132812 11.65625 3.882812 11.914062 C 3.632812 12.167969 3.484375 12.511719 3.484375 12.890625 C 3.484375 13.277344 3.640625 13.625 3.882812 13.875 C 4.136719 14.125 4.480469 14.273438 4.867188 14.273438 C 5.246094 14.273438 5.589844 14.117188 5.84375 13.875 C 6.09375 13.621094 6.253906 13.277344 6.253906 12.890625 C 6.253906 12.511719 6.09375 12.167969 5.84375 11.914062 C 5.59375 11.65625 5.246094 11.503906 4.867188 11.503906 Z M 8.628906 20.789062 C 7.878906 20.789062 7.28125 21.386719 7.28125 22.128906 C 7.28125 22.878906 7.878906 23.476562 8.628906 23.476562 L 12.066406 23.476562 C 12.808594 23.476562 13.410156 22.878906 13.410156 22.128906 C 13.410156 21.386719 12.808594 20.789062 12.066406 20.789062 Z M 15.863281 20.789062 C 15.121094 20.789062 14.515625 21.386719 14.515625 22.128906 C 14.515625 22.878906 15.121094 23.476562 15.863281 23.476562 L 18.945312 23.476562 C 20.578125 23.476562 22.074219 22.808594 23.152344 21.726562 C 24.234375 20.644531 24.90625 19.148438 24.90625 17.511719 C 24.90625 15.871094 24.238281 14.382812 23.152344 13.300781 C 22.066406 12.222656 20.578125 11.550781 18.945312 11.550781 L 15.863281 11.550781 C 15.121094 11.550781 14.515625 12.148438 14.515625 12.890625 C 14.515625 13.640625 15.121094 14.238281 15.863281 14.238281 L 18.945312 14.238281 C 19.84375 14.238281 20.660156 14.609375 21.253906 15.203125 C 21.847656 15.796875 22.214844 16.613281 22.214844 17.511719 C 22.214844 18.414062 21.847656 19.230469 21.253906 19.824219 C 20.660156 20.417969 19.84375 20.789062 18.945312 20.789062 Z M 4.867188 25.75 C 4.117188 25.75 3.519531 26.355469 3.519531 27.097656 C 3.519531 27.839844 4.117188 28.449219 4.867188 28.449219 L 9.992188 28.449219 C 10.734375 28.449219 11.332031 27.839844 11.332031 27.097656 C 11.332031 26.355469 10.734375 25.75 9.992188 25.75 Z M 13.789062 25.75 C 13.046875 25.75 12.445312 26.355469 12.445312 27.097656 C 12.445312 27.839844 13.046875 28.449219 13.789062 28.449219 L 18.945312 28.449219 C 21.953125 28.449219 24.691406 27.214844 26.675781 25.238281 C 28.65625 23.253906 29.882812 20.519531 29.882812 17.503906 C 29.882812 14.488281 28.65625 11.757812 26.675781 9.777344 C 24.691406 7.792969 21.953125 6.566406 18.945312 6.566406 L 13.789062 6.566406 C 13.046875 6.566406 12.445312 7.167969 12.445312 7.914062 C 12.445312 8.65625 13.046875 9.257812 13.789062 9.257812 L 18.945312 9.257812 C 21.210938 9.257812 23.269531 10.179688 24.765625 11.675781 C 26.261719 13.175781 27.1875 15.230469 27.1875 17.496094 C 27.1875 19.769531 26.261719 21.832031 24.765625 23.324219 C 23.269531 24.8125 21.210938 25.738281 18.945312 25.738281 L 13.789062 25.738281 Z M 13.789062 25.75 " fill-opacity="1" fill-rule="nonzero"/></g></svg>